<svg width="964" height="518" viewBox="0 0 964 518" fill="none" xmlns="http://www.w3.org/2000/svg">
<path d="M119.02 226L101.2 176.06H32.78L14.96 226H6.6L61.82 72.44H72.38L127.6 226H119.02ZM67.32 80.36H66.44L34.98 169.02H99L67.32 80.36ZM148.797 226V219.18H171.897V79.26H148.797V72.44H203.137V79.26H180.037V219.18H203.137V226H148.797ZM286.569 226V72.44H320.009V196.3H378.529V226H286.569ZM417.749 98.18C411.149 98.18 406.309 96.7133 403.229 93.78C400.296 90.7 398.829 86.8133 398.829 82.12V77.28C398.829 72.5867 400.296 68.7733 403.229 65.84C406.309 62.76 411.149 61.22 417.749 61.22C424.349 61.22 429.116 62.76 432.049 65.84C435.129 68.7733 436.669 72.5867 436.669 77.28V82.12C436.669 86.8133 435.129 90.7 432.049 93.78C429.116 96.7133 424.349 98.18 417.749 98.18ZM401.469 110.5H434.029V226H401.469V110.5ZM470.138 135.8H453.858V110.5H470.138V96.86C470.138 85.7133 473.072 77.3533 478.938 71.78C484.805 66.06 493.385 63.2 504.678 63.2H525.798V88.5H502.698V110.5H525.798V135.8H502.698V226H470.138V135.8ZM591.231 228.64C582.431 228.64 574.584 227.247 567.691 224.46C560.798 221.527 554.931 217.493 550.091 212.36C545.398 207.08 541.804 200.7 539.311 193.22C536.964 185.74 535.791 177.38 535.791 168.14C535.791 159.047 536.964 150.833 539.311 143.5C541.658 136.02 545.104 129.64 549.651 124.36C554.344 119.08 560.064 115.047 566.811 112.26C573.558 109.327 581.258 107.86 589.911 107.86C599.444 107.86 607.584 109.473 614.331 112.7C621.224 115.927 626.798 120.253 631.051 125.68C635.451 131.107 638.604 137.413 640.511 144.6C642.564 151.64 643.591 159.047 643.591 166.82V176.5H569.451V178.26C569.451 185.887 571.504 191.973 575.611 196.52C579.718 200.92 586.171 203.12 594.971 203.12C601.718 203.12 607.218 201.8 611.471 199.16C615.724 196.373 619.684 193.073 623.351 189.26L639.631 209.5C634.498 215.513 627.751 220.207 619.391 223.58C611.178 226.953 601.791 228.64 591.231 228.64ZM590.571 131.84C583.971 131.84 578.764 134.04 574.951 138.44C571.284 142.693 569.451 148.413 569.451 155.6V157.36H609.931V155.38C609.931 148.34 608.318 142.693 605.091 138.44C602.011 134.04 597.171 131.84 590.571 131.84ZM715.918 228.64C702.424 228.64 690.984 226.367 681.598 221.82C672.211 217.127 664.218 211.113 657.618 203.78L679.618 181.56C690.031 193.293 702.864 199.16 718.118 199.16C726.331 199.16 732.418 197.473 736.378 194.1C740.338 190.727 742.318 186.253 742.318 180.68C742.318 176.427 741.144 172.907 738.798 170.12C736.451 167.187 731.684 165.207 724.498 164.18L709.318 162.2C693.038 160.147 681.084 155.233 673.458 147.46C665.978 139.687 662.238 129.347 662.238 116.44C662.238 109.547 663.558 103.24 666.198 97.52C668.838 91.8 672.578 86.8867 677.418 82.78C682.404 78.6733 688.418 75.52 695.458 73.32C702.644 70.9733 710.784 69.8 719.878 69.8C731.464 69.8 741.658 71.6333 750.458 75.3C759.258 78.9667 766.811 84.32 773.118 91.36L750.898 113.8C747.231 109.547 742.758 106.1 737.478 103.46C732.344 100.673 725.818 99.28 717.898 99.28C710.418 99.28 704.844 100.6 701.178 103.24C697.511 105.88 695.678 109.547 695.678 114.24C695.678 119.52 697.071 123.333 699.858 125.68C702.791 128.027 707.484 129.713 713.938 130.74L729.118 133.16C744.958 135.653 756.691 140.567 764.318 147.9C771.944 155.087 775.758 165.353 775.758 178.7C775.758 186.033 774.438 192.78 771.798 198.94C769.158 205.1 765.271 210.38 760.138 214.78C755.151 219.18 748.918 222.627 741.438 225.12C733.958 227.467 725.451 228.64 715.918 228.64ZM848.363 228.64C839.71 228.64 832.01 227.247 825.263 224.46C818.516 221.527 812.87 217.493 808.323 212.36C803.776 207.08 800.33 200.7 797.983 193.22C795.636 185.74 794.463 177.38 794.463 168.14C794.463 158.9 795.636 150.613 797.983 143.28C800.33 135.8 803.776 129.42 808.323 124.14C812.87 118.86 818.516 114.827 825.263 112.04C832.01 109.253 839.71 107.86 848.363 107.86C860.096 107.86 869.85 110.5 877.623 115.78C885.543 121.06 891.19 128.467 894.563 138L868.163 149.44C867.136 145.04 865.01 141.3 861.783 138.22C858.556 135.14 854.083 133.6 848.363 133.6C841.763 133.6 836.776 135.8 833.403 140.2C830.03 144.453 828.343 150.247 828.343 157.58V179.14C828.343 186.473 830.03 192.267 833.403 196.52C836.776 200.773 841.763 202.9 848.363 202.9C854.23 202.9 858.85 201.36 862.223 198.28C865.743 195.053 868.31 190.873 869.923 185.74L895.223 196.74C891.41 207.74 885.47 215.807 877.403 220.94C869.483 226.073 859.803 228.64 848.363 228.64ZM931.655 98.18C925.055 98.18 920.215 96.7133 917.135 93.78C914.202 90.7 912.735 86.8133 912.735 82.12V77.28C912.735 72.5867 914.202 68.7733 917.135 65.84C920.215 62.76 925.055 61.22 931.655 61.22C938.255 61.22 943.022 62.76 945.955 65.84C949.035 68.7733 950.575 72.5867 950.575 77.28V82.12C950.575 86.8133 949.035 90.7 945.955 93.78C943.022 96.7133 938.255 98.18 931.655 98.18ZM915.375 110.5H947.935V226H915.375V110.5Z" fill="#0F6FFF"/>
<path d="M247.7 321.8H228.12C226.067 342.627 222.987 360.447 218.88 375.26C214.92 389.927 209.347 403.2 202.16 415.08C212.573 430.627 227.533 445.733 247.04 460.4L240.88 470.74C222.253 456.367 207.22 440.967 195.78 424.54C185.22 439.5 169.453 455.047 148.48 471.18L141.22 462.16C162.34 446.76 178.473 430.92 189.62 414.64C178.327 395.427 170.993 372.62 167.62 346.22C164.393 352.38 161.24 357.953 158.16 362.94L152 353.04C158.6 342.48 164.98 329.5 171.14 314.1C177.447 298.553 181.92 284.4 184.56 271.64L194.9 273.84C192.7 284.253 189.033 296.427 183.9 310.36H247.7V321.8ZM55.42 369.54C65.98 363.527 75 357.44 82.48 351.28C90.1067 345.12 96.8533 338.373 102.72 331.04H59.16V321.8H104.92V272.96H115.26V321.8H158.6V331.04H115.26V338.3C121.127 341.38 128.167 345.34 136.38 350.18C144.74 354.873 151.633 359.053 157.06 362.72L152.22 371.3C147.087 367.633 141 363.6 133.96 359.2C126.92 354.653 120.687 350.913 115.26 347.98V372.4H104.92V341.38C99.3467 348.273 92.8933 354.727 85.56 360.74C78.3733 366.607 69.7933 372.473 59.82 378.34L55.42 369.54ZM85.56 314.1C81.16 307.353 74.0467 297.453 64.22 284.4L71.04 279.34L93.04 309.26L85.56 314.1ZM156.18 284.62C146.5 298.113 138.873 308.233 133.3 314.98L126.04 309.48C129.267 305.52 133.153 300.533 137.7 294.52C142.247 288.507 145.913 283.447 148.7 279.34L156.18 284.62ZM195.78 404.52C201.647 393.813 206.34 381.86 209.86 368.66C213.38 355.46 216.093 339.84 218 321.8H179.28L175.32 330.82C176.64 345.78 178.913 359.273 182.14 371.3C185.513 383.18 190.06 394.253 195.78 404.52ZM144.52 459.08C135.867 454.24 126.48 449.253 116.36 444.12C103.6 453.507 84.6067 462.233 59.38 470.3L55.2 460.84C77.3467 453.947 94.4333 446.76 106.46 439.28C95.46 433.853 83.5067 428.207 70.6 422.34C73.9733 416.767 78.08 409.58 82.92 400.78H56.96V391.54H87.54C90.18 386.407 92.6733 380.613 95.02 374.16L104.92 377.02C103.013 382.447 100.96 387.287 98.76 391.54H149.14V400.34C145.913 408.113 142.393 415.007 138.58 421.02C134.913 426.887 130.367 432.313 124.94 437.3C133.447 441.26 141.513 445.293 149.14 449.4L144.52 459.08ZM84.46 418.38C95.1667 423.073 105.58 427.84 115.7 432.68C120.833 428.427 125.16 423.733 128.68 418.6C132.347 413.467 135.573 407.527 138.36 400.78H94.36C92.16 405.18 88.86 411.047 84.46 418.38ZM329.32 350.18C325.507 357.073 319.86 363.307 312.38 368.88C304.9 374.307 294.707 379.88 281.8 385.6L276.3 376.36C290.673 370.2 301.673 363.893 309.3 357.44C316.927 350.84 321.987 343.067 324.48 334.12H277.4V325.1H326.24L326.46 320.92L327.12 299.8H305.12C300.867 307.133 296.027 313.88 290.6 320.04L282.68 314.1C288.547 307.353 293.827 299.873 298.52 291.66C303.213 283.447 306.88 275.747 309.52 268.56L318.76 271.86C316.56 278.02 313.773 284.327 310.4 290.78H372.22V299.8H337.24L336.58 321.36L336.36 325.1H377.72V334.12H335.04C334.6 336.613 333.94 339.107 333.06 341.6C353.74 354.213 367.82 363.16 375.3 368.44L369.36 377.02C357.48 368.66 344.133 359.713 329.32 350.18ZM387.84 363.16V289.46H455.6V363.16H387.84ZM397.74 352.82H445.26V299.36H397.74V352.82ZM317.44 470.08H306.44V382.3H438.22V469.86H427.22V458.42H317.44V470.08ZM427.22 415.96V391.98H317.44V415.96H427.22ZM317.44 425.2V448.96H427.22V425.2H317.44ZM608.72 440.16H689.68V461.72H500.04V440.16H585.18V395.06H517.64V373.06H585.18V333.02H537.66C531.5 346.22 524.533 358.247 516.76 369.1L497.18 357.44C505.687 346.44 512.8 334.633 518.52 322.02C524.24 309.26 529.153 294.74 533.26 278.46L555.04 283.52C551.96 294.227 549.027 303.54 546.24 311.46H585.18V270.98H608.72V311.46H681.54V333.02H608.72V373.06H673.84V395.06H608.72V440.16ZM909.46 390.66L911.22 412L883.28 415.08V471.18H861.28V417.5L790.22 425.2L788.68 403.42L861.28 395.72V270.98H883.28V393.52L909.46 390.66ZM785.6 404.74L766.46 388.02V471.62H746V390C737.787 407.6 728.913 423 719.38 436.2L711.68 411.56C717.4 403.933 723.047 394.913 728.62 384.5C734.34 373.94 739.327 363.087 743.58 351.94H715.42V331.04H746V305.96C735.733 307.573 726.933 308.82 719.6 309.7L717.62 289.9C728.18 288.727 740.647 286.893 755.02 284.4C769.393 281.907 781.493 279.34 791.32 276.7L795.06 296.06C787.727 298.113 778.193 300.24 766.46 302.44V331.04H794.4V351.94H766.46V363.38C774.087 369.247 784.573 377.9 797.92 389.34L785.6 404.74ZM841.04 335.88C834.88 330.16 828.133 324.073 820.8 317.62C813.467 311.02 807.6 305.887 803.2 302.22L816.62 286.82C823.953 292.833 836.64 303.76 854.68 319.6L841.04 335.88ZM834.88 388.68C828.133 382.52 815.227 371.373 796.16 355.24L809.58 338.96C826.007 352.16 839.06 363.16 848.74 371.96L834.88 388.68Z" fill="#0F6FFF"/>
</svg>
