<svg width="1094" height="511" viewBox="0 0 1094 511" fill="none" xmlns="http://www.w3.org/2000/svg">
<path d="M466.452 226V72.44H484.932V209.72H550.272V226H466.452ZM583.707 85.86C579.894 85.86 577.107 84.98 575.347 83.22C573.734 81.3133 572.927 78.8933 572.927 75.96V73.1C572.927 70.1667 573.734 67.82 575.347 66.06C577.107 64.1533 579.894 63.2 583.707 63.2C587.52 63.2 590.234 64.1533 591.847 66.06C593.607 67.82 594.487 70.1667 594.487 73.1V75.96C594.487 78.8933 593.607 81.3133 591.847 83.22C590.234 84.98 587.52 85.86 583.707 85.86ZM574.907 112.48H592.507V226H574.907V112.48ZM636.067 127.88H617.587V112.48H636.067V89.6C636.067 81.68 638.12 75.3 642.227 70.46C646.334 65.62 652.567 63.2 660.927 63.2H678.087V78.6H653.667V112.48H678.087V127.88H653.667V226H636.067V127.88ZM743.056 228.64C735.282 228.64 728.242 227.247 721.936 224.46C715.776 221.673 710.422 217.713 705.876 212.58C701.476 207.3 698.029 201.067 695.536 193.88C693.189 186.547 692.016 178.333 692.016 169.24C692.016 160.293 693.189 152.153 695.536 144.82C698.029 137.487 701.476 131.253 705.876 126.12C710.422 120.84 715.776 116.807 721.936 114.02C728.242 111.233 735.282 109.84 743.056 109.84C750.682 109.84 757.502 111.233 763.516 114.02C769.529 116.807 774.662 120.693 778.916 125.68C783.169 130.52 786.396 136.313 788.596 143.06C790.942 149.807 792.116 157.213 792.116 165.28V173.64H710.496V178.92C710.496 183.76 711.229 188.307 712.696 192.56C714.309 196.667 716.509 200.26 719.296 203.34C722.229 206.42 725.749 208.84 729.856 210.6C734.109 212.36 738.876 213.24 744.156 213.24C751.342 213.24 757.576 211.553 762.856 208.18C768.282 204.807 772.462 199.967 775.396 193.66L787.936 202.68C784.269 210.453 778.549 216.76 770.776 221.6C763.002 226.293 753.762 228.64 743.056 228.64ZM743.056 124.58C738.216 124.58 733.816 125.46 729.856 127.22C725.896 128.833 722.449 131.18 719.516 134.26C716.729 137.34 714.529 141.007 712.916 145.26C711.302 149.367 710.496 153.913 710.496 158.9V160.44H773.196V158.02C773.196 147.9 770.409 139.833 764.836 133.82C759.409 127.66 752.149 124.58 743.056 124.58ZM863.85 228.64C851.383 228.64 840.75 226.293 831.95 221.6C823.15 216.76 815.67 210.16 809.51 201.8L823.15 190.36C828.576 197.547 834.59 203.047 841.19 206.86C847.79 210.527 855.563 212.36 864.51 212.36C875.51 212.36 883.87 209.72 889.59 204.44C895.456 199.16 898.39 192.12 898.39 183.32C898.39 175.987 896.19 170.34 891.79 166.38C887.39 162.42 880.13 159.267 870.01 156.92L857.47 154.06C843.39 150.833 832.61 145.993 825.13 139.54C817.796 132.94 814.13 123.7 814.13 111.82C814.13 105.073 815.376 99.06 817.87 93.78C820.363 88.5 823.81 84.1 828.21 80.58C832.756 77.06 838.11 74.42 844.27 72.66C850.576 70.7533 857.47 69.8 864.95 69.8C876.536 69.8 886.436 71.9267 894.65 76.18C903.01 80.4333 910.05 86.6667 915.77 94.88L901.91 105C897.656 99.1333 892.523 94.5133 886.51 91.14C880.496 87.7667 873.016 86.08 864.07 86.08C854.243 86.08 846.47 88.2067 840.75 92.46C835.176 96.5667 832.39 102.8 832.39 111.16C832.39 118.493 834.736 124.067 839.43 127.88C844.27 131.547 851.53 134.48 861.21 136.68L873.75 139.54C888.856 142.913 899.783 148.047 906.53 154.94C913.276 161.833 916.65 171 916.65 182.44C916.65 189.48 915.403 195.86 912.91 201.58C910.563 207.3 907.116 212.14 902.57 216.1C898.023 220.06 892.45 223.14 885.85 225.34C879.396 227.54 872.063 228.64 863.85 228.64ZM989.042 228.64C981.122 228.64 974.008 227.247 967.702 224.46C961.395 221.673 956.042 217.713 951.642 212.58C947.388 207.447 944.088 201.213 941.742 193.88C939.542 186.547 938.442 178.333 938.442 169.24C938.442 160.147 939.542 151.933 941.742 144.6C944.088 137.267 947.388 131.033 951.642 125.9C956.042 120.767 961.395 116.807 967.702 114.02C974.008 111.233 981.122 109.84 989.042 109.84C1000.33 109.84 1009.35 112.333 1016.1 117.32C1022.99 122.16 1028.13 128.54 1031.5 136.46L1016.76 143.94C1014.71 138.073 1011.33 133.527 1006.64 130.3C1001.95 127.073 996.082 125.46 989.042 125.46C983.762 125.46 979.142 126.34 975.182 128.1C971.222 129.713 967.922 132.06 965.282 135.14C962.642 138.073 960.662 141.667 959.342 145.92C958.022 150.027 957.362 154.573 957.362 159.56V178.92C957.362 188.893 960.002 197.107 965.282 203.56C970.708 209.867 978.628 213.02 989.042 213.02C1003.27 213.02 1013.53 206.42 1019.84 193.22L1032.6 201.8C1028.93 210.013 1023.43 216.54 1016.1 221.38C1008.91 226.22 999.895 228.64 989.042 228.64ZM1066.25 85.86C1062.43 85.86 1059.65 84.98 1057.89 83.22C1056.27 81.3133 1055.47 78.8933 1055.47 75.96V73.1C1055.47 70.1667 1056.27 67.82 1057.89 66.06C1059.65 64.1533 1062.43 63.2 1066.25 63.2C1070.06 63.2 1072.77 64.1533 1074.39 66.06C1076.15 67.82 1077.03 70.1667 1077.03 73.1V75.96C1077.03 78.8933 1076.15 81.3133 1074.39 83.22C1072.77 84.98 1070.06 85.86 1066.25 85.86ZM1057.45 112.48H1075.05V226H1057.45V112.48Z" fill="#0F6FFF"/>
<path d="M324.02 226L306.2 176.06H237.78L219.96 226H211.6L266.82 72.44H277.38L332.6 226H324.02ZM272.32 80.36H271.44L239.98 169.02H304L272.32 80.36ZM353.797 226V219.18H376.897V79.26H353.797V72.44H408.137V79.26H385.037V219.18H408.137V226H353.797Z" fill="#0F6FFF"/>
<path d="M205.04 313.7H183.48C181.427 335.26 178.273 353.52 174.02 368.48C169.913 383.44 164.047 396.933 156.42 408.96C167.273 425.093 183.04 440.86 203.72 456.26L199.54 463.3C179.007 447.753 163.167 431.84 152.02 415.56C146.007 423.773 138.82 431.84 130.46 439.76C122.1 447.533 112.2 455.6 100.76 463.96L95.92 457.8C107.8 449.293 117.92 441.153 126.28 433.38C134.64 425.46 141.753 417.247 147.62 408.74C141.167 398.18 136.033 386.96 132.22 375.08C128.407 363.053 125.693 349.853 124.08 335.48C121.147 341.2 117.7 347.213 113.74 353.52L109.12 347.14C116.013 336.58 122.687 323.527 129.14 307.98C135.593 292.287 140.14 278.133 142.78 265.52L150.04 267.06C147.693 278.5 143.587 291.407 137.72 305.78H205.04V313.7ZM14.3 366.06C25.3 359.313 34.6867 352.64 42.46 346.04C50.2333 339.293 57.2 331.887 63.36 323.82H18.48V317.22H65.34V266.84H72.38V317.22H116.38V323.82H72.38V332.62C79.1267 336.14 86.7533 340.393 95.26 345.38C103.913 350.367 110.88 354.62 116.16 358.14L112.64 364.08C107.36 360.56 100.833 356.453 93.06 351.76C85.2867 347.067 78.3933 343.033 72.38 339.66V366.28H65.34V330.86C59.18 338.78 52.2867 346.04 44.66 352.64C37.0333 359.24 27.94 365.767 17.38 372.22L14.3 366.06ZM113.96 277.84C106.627 287.667 98.6333 297.86 89.98 308.42L84.7 304.46C88.22 300.353 92.4 295.293 97.24 289.28C102.08 283.12 105.893 277.987 108.68 273.88L113.96 277.84ZM46.42 307.76C41.7267 301.013 34.2467 291.04 23.98 277.84L28.6 274.1C36.08 283.487 43.78 293.533 51.7 304.24L46.42 307.76ZM151.8 401.92C158.693 390.773 164.047 378.233 167.86 364.3C171.673 350.22 174.533 333.353 176.44 313.7H134.42L129.58 324.7C130.9 340.393 133.32 354.547 136.84 367.16C140.507 379.627 145.493 391.213 151.8 401.92ZM103.4 450.76C95.92 446.653 86.3867 441.667 74.8 435.8C61.8933 445.333 42.5333 454.207 16.72 462.42L14.08 455.82C38.28 448.193 56.1733 440.347 67.76 432.28C50.0133 423.773 37.5467 417.98 30.36 414.9C34.76 408.153 39.0133 400.747 43.12 392.68H15.62V386.08H46.42C49.3533 380.213 51.9933 374.273 54.34 368.26L61.16 370.46C59.9867 373.833 57.7867 379.04 54.56 386.08H106.26V392.68C102.887 400.893 99.22 408.08 95.26 414.24C91.4467 420.253 86.6067 425.827 80.74 430.96C89.54 435.213 98.1933 439.613 106.7 444.16L103.4 450.76ZM39.82 412.04C49.6467 416.147 61.0133 421.353 73.92 427.66C79.64 422.967 84.4067 417.833 88.22 412.26C92.0333 406.687 95.48 400.16 98.56 392.68H51.04C47.08 400.16 43.34 406.613 39.82 412.04ZM286.88 341.86C283.213 349.34 277.493 356.087 269.72 362.1C262.093 368.113 251.68 374.053 238.48 379.92L234.96 373.54C250.36 366.793 261.947 359.753 269.72 352.42C277.493 345.087 282.333 336.507 284.24 326.68H235.84V320.52H285.12C285.267 320.08 285.34 319.347 285.34 318.32L286 300.5L286.22 292.8H263.12C257.693 301.453 252.487 308.713 247.5 314.58L242 310.18C248.013 303.433 253.513 295.733 258.5 287.08C263.487 278.427 267.3 270.433 269.94 263.1L276.54 265.3C274.193 271.9 270.967 278.867 266.86 286.2H330.44V292.8H293.04C293.04 305.12 292.82 313.7 292.38 318.54C292.38 319.42 292.307 320.08 292.16 320.52H335.94V326.68H291.5C291.207 329.027 290.473 332.033 289.3 335.7C305.14 345.673 319.66 355.28 332.86 364.52L328.68 370.46C315.773 361.22 301.84 351.687 286.88 341.86ZM346.5 355.5V285.1H412.28V355.5H346.5ZM353.32 348.46H405.02V291.92H353.32V348.46ZM274.34 462.64H266.86V376.84H393.58V462.2H386.1V450.1H274.34V462.64ZM386.1 410.5V383.44H274.34V410.5H386.1ZM274.34 416.88V443.5H386.1V416.88H274.34ZM563.42 436.46H646.8V452.74H457.82V436.46H545.82V384.76H476.96V368.26H545.82V323.16H493.46C487.153 336.947 479.747 349.78 471.24 361.66L456.5 352.64C473.073 330.493 485.467 303.433 493.68 271.46L510.4 275.42C507.32 286.567 504.02 296.907 500.5 306.44H545.82V263.32H563.42V306.44H638.66V323.16H563.42V368.26H631.18V384.76H563.42V436.46ZM867.24 385.42L868.56 401.7L837.76 405V463.52H821.26V406.98L748.22 414.9L747.12 398.4L821.26 390.48V263.32H837.76V388.5L867.24 385.42ZM743.38 394.22L722.04 374.42V464.4H706.86V373.1C697.767 394.513 687.793 412.48 676.94 427L670.12 408.96C677.16 399.573 683.687 389.087 689.7 377.5C695.713 365.767 700.92 353.813 705.32 341.64H674.52V326.02H706.86V295.44L701.8 296.1C689.773 297.86 681.707 298.96 677.6 299.4L676.28 284.22C686.693 283.047 699.013 281.287 713.24 278.94C727.613 276.447 739.493 274.027 748.88 271.68L751.74 286.64C745.727 288.253 735.827 290.307 722.04 292.8V326.02H752.62V341.64H722.04V355.06C733.627 364.593 744.187 373.833 753.72 382.78L743.38 394.22ZM800.58 327.34C784.74 312.673 772.053 301.453 762.52 293.68L772.86 281.8C779.9 287.52 792.66 298.52 811.14 314.8L800.58 327.34ZM794.64 380.36C789.213 375.667 783.42 370.68 777.26 365.4C771.247 360.12 765.527 355.133 760.1 350.44L755.26 346.48L765.6 333.94C785.107 350.073 798.38 361.22 805.42 367.38L794.64 380.36Z" fill="#0F6FFF"/>
</svg>
